<mxfile host="app.diagrams.net" modified="2021-04-20T06:37:31.262Z" agent="5.0 (Windows NT 10.0; Win64; x64) AppleWebKit/537.36 (KHTML, like Gecko) Chrome/89.0.4389.128 Safari/537.36" etag="xQcsF2914ndkpzCLqjRF" version="14.6.3" type="github">
  <diagram id="R2lEEEUBdFMjLlhIrx00" name="Page-1">
    <mxGraphModel dx="782" dy="446" grid="1" gridSize="10" guides="1" tooltips="1" connect="1" arrows="1" fold="1" page="1" pageScale="1" pageWidth="850" pageHeight="1100" math="0" shadow="0" extFonts="Permanent Marker^https://fonts.googleapis.com/css?family=Permanent+Marker">
      <root>
        <mxCell id="0" />
        <mxCell id="1" parent="0" />
        <mxCell id="KvIE-I7Vvlbd97NcbpaM-1" value="PassengerÂ " style="swimlane;fontStyle=0;childLayout=stackLayout;horizontal=1;startSize=26;horizontalStack=0;resizeParent=1;resizeParentMax=0;resizeLast=0;collapsible=1;marginBottom=0;align=center;fontSize=14;" vertex="1" parent="1">
          <mxGeometry x="120" y="240" width="140" height="110" as="geometry" />
        </mxCell>
        <mxCell id="KvIE-I7Vvlbd97NcbpaM-2" value="FirstName (string)" style="text;strokeColor=none;fillColor=none;spacingLeft=4;spacingRight=4;overflow=hidden;rotatable=0;points=[[0,0.5],[1,0.5]];portConstraint=eastwest;fontSize=12;" vertex="1" parent="KvIE-I7Vvlbd97NcbpaM-1">
          <mxGeometry y="26" width="140" height="30" as="geometry" />
        </mxCell>
        <mxCell id="KvIE-I7Vvlbd97NcbpaM-3" value="LastName (string)" style="text;strokeColor=none;fillColor=none;spacingLeft=4;spacingRight=4;overflow=hidden;rotatable=0;points=[[0,0.5],[1,0.5]];portConstraint=eastwest;fontSize=12;" vertex="1" parent="KvIE-I7Vvlbd97NcbpaM-1">
          <mxGeometry y="56" width="140" height="30" as="geometry" />
        </mxCell>
        <mxCell id="KvIE-I7Vvlbd97NcbpaM-4" value="Item 3" style="text;strokeColor=none;fillColor=none;spacingLeft=4;spacingRight=4;overflow=hidden;rotatable=0;points=[[0,0.5],[1,0.5]];portConstraint=eastwest;fontSize=12;" vertex="1" parent="KvIE-I7Vvlbd97NcbpaM-1">
          <mxGeometry y="86" width="140" height="24" as="geometry" />
        </mxCell>
        <mxCell id="KvIE-I7Vvlbd97NcbpaM-5" value="Flight" style="swimlane;fontStyle=0;childLayout=stackLayout;horizontal=1;startSize=26;horizontalStack=0;resizeParent=1;resizeParentMax=0;resizeLast=0;collapsible=1;marginBottom=0;align=center;fontSize=14;" vertex="1" parent="1">
          <mxGeometry x="550" y="200" width="190" height="236" as="geometry" />
        </mxCell>
        <mxCell id="KvIE-I7Vvlbd97NcbpaM-6" value="Number (string)" style="text;strokeColor=none;fillColor=none;spacingLeft=4;spacingRight=4;overflow=hidden;rotatable=0;points=[[0,0.5],[1,0.5]];portConstraint=eastwest;fontSize=12;" vertex="1" parent="KvIE-I7Vvlbd97NcbpaM-5">
          <mxGeometry y="26" width="190" height="30" as="geometry" />
        </mxCell>
        <mxCell id="KvIE-I7Vvlbd97NcbpaM-7" value="DepartureDateTime (dateTime)" style="text;strokeColor=none;fillColor=none;spacingLeft=4;spacingRight=4;overflow=hidden;rotatable=0;points=[[0,0.5],[1,0.5]];portConstraint=eastwest;fontSize=12;" vertex="1" parent="KvIE-I7Vvlbd97NcbpaM-5">
          <mxGeometry y="56" width="190" height="30" as="geometry" />
        </mxCell>
        <mxCell id="KvIE-I7Vvlbd97NcbpaM-8" value="ArrivalDateTime (dateTime)" style="text;strokeColor=none;fillColor=none;spacingLeft=4;spacingRight=4;overflow=hidden;rotatable=0;points=[[0,0.5],[1,0.5]];portConstraint=eastwest;fontSize=12;" vertex="1" parent="KvIE-I7Vvlbd97NcbpaM-5">
          <mxGeometry y="86" width="190" height="30" as="geometry" />
        </mxCell>
        <mxCell id="KvIE-I7Vvlbd97NcbpaM-9" value="DurationInMinutes (integer)" style="text;strokeColor=none;fillColor=none;spacingLeft=4;spacingRight=4;overflow=hidden;rotatable=0;points=[[0,0.5],[1,0.5]];portConstraint=eastwest;fontSize=12;" vertex="1" parent="KvIE-I7Vvlbd97NcbpaM-5">
          <mxGeometry y="116" width="190" height="30" as="geometry" />
        </mxCell>
        <mxCell id="KvIE-I7Vvlbd97NcbpaM-10" value="DistanceInMiles (integer)" style="text;strokeColor=none;fillColor=none;spacingLeft=4;spacingRight=4;overflow=hidden;rotatable=0;points=[[0,0.5],[1,0.5]];portConstraint=eastwest;fontSize=12;" vertex="1" parent="KvIE-I7Vvlbd97NcbpaM-5">
          <mxGeometry y="146" width="190" height="30" as="geometry" />
        </mxCell>
        <mxCell id="KvIE-I7Vvlbd97NcbpaM-40" value="DepartureAirportID (integer)" style="text;strokeColor=none;fillColor=none;spacingLeft=4;spacingRight=4;overflow=hidden;rotatable=0;points=[[0,0.5],[1,0.5]];portConstraint=eastwest;fontSize=12;" vertex="1" parent="KvIE-I7Vvlbd97NcbpaM-5">
          <mxGeometry y="176" width="190" height="30" as="geometry" />
        </mxCell>
        <mxCell id="KvIE-I7Vvlbd97NcbpaM-41" value="ArrivalAirportID (integer)" style="text;strokeColor=none;fillColor=none;spacingLeft=4;spacingRight=4;overflow=hidden;rotatable=0;points=[[0,0.5],[1,0.5]];portConstraint=eastwest;fontSize=12;" vertex="1" parent="KvIE-I7Vvlbd97NcbpaM-5">
          <mxGeometry y="206" width="190" height="30" as="geometry" />
        </mxCell>
        <mxCell id="KvIE-I7Vvlbd97NcbpaM-12" value="Ticket" style="swimlane;fontStyle=0;childLayout=stackLayout;horizontal=1;startSize=26;horizontalStack=0;resizeParent=1;resizeParentMax=0;resizeLast=0;collapsible=1;marginBottom=0;align=center;fontSize=14;" vertex="1" parent="1">
          <mxGeometry x="320" y="40" width="160" height="116" as="geometry" />
        </mxCell>
        <mxCell id="KvIE-I7Vvlbd97NcbpaM-13" value="TicketNumber (string)" style="text;strokeColor=none;fillColor=none;spacingLeft=4;spacingRight=4;overflow=hidden;rotatable=0;points=[[0,0.5],[1,0.5]];portConstraint=eastwest;fontSize=12;" vertex="1" parent="KvIE-I7Vvlbd97NcbpaM-12">
          <mxGeometry y="26" width="160" height="30" as="geometry" />
        </mxCell>
        <mxCell id="KvIE-I7Vvlbd97NcbpaM-14" value="Price (float)" style="text;strokeColor=none;fillColor=none;spacingLeft=4;spacingRight=4;overflow=hidden;rotatable=0;points=[[0,0.5],[1,0.5]];portConstraint=eastwest;fontSize=12;" vertex="1" parent="KvIE-I7Vvlbd97NcbpaM-12">
          <mxGeometry y="56" width="160" height="30" as="geometry" />
        </mxCell>
        <mxCell id="KvIE-I7Vvlbd97NcbpaM-34" value="ConfirmationNumber (string)" style="text;strokeColor=none;fillColor=none;spacingLeft=4;spacingRight=4;overflow=hidden;rotatable=0;points=[[0,0.5],[1,0.5]];portConstraint=eastwest;fontSize=12;" vertex="1" parent="KvIE-I7Vvlbd97NcbpaM-12">
          <mxGeometry y="86" width="160" height="30" as="geometry" />
        </mxCell>
        <mxCell id="KvIE-I7Vvlbd97NcbpaM-16" value="Airport" style="swimlane;fontStyle=0;childLayout=stackLayout;horizontal=1;startSize=26;horizontalStack=0;resizeParent=1;resizeParentMax=0;resizeLast=0;collapsible=1;marginBottom=0;align=center;fontSize=14;" vertex="1" parent="1">
          <mxGeometry x="150" y="406" width="160" height="146" as="geometry" />
        </mxCell>
        <mxCell id="KvIE-I7Vvlbd97NcbpaM-17" value="IATACode (string)" style="text;strokeColor=none;fillColor=none;spacingLeft=4;spacingRight=4;overflow=hidden;rotatable=0;points=[[0,0.5],[1,0.5]];portConstraint=eastwest;fontSize=12;" vertex="1" parent="KvIE-I7Vvlbd97NcbpaM-16">
          <mxGeometry y="26" width="160" height="30" as="geometry" />
        </mxCell>
        <mxCell id="KvIE-I7Vvlbd97NcbpaM-18" value="Name (string)" style="text;strokeColor=none;fillColor=none;spacingLeft=4;spacingRight=4;overflow=hidden;rotatable=0;points=[[0,0.5],[1,0.5]];portConstraint=eastwest;fontSize=12;" vertex="1" parent="KvIE-I7Vvlbd97NcbpaM-16">
          <mxGeometry y="56" width="160" height="30" as="geometry" />
        </mxCell>
        <mxCell id="KvIE-I7Vvlbd97NcbpaM-19" value="City (string)" style="text;strokeColor=none;fillColor=none;spacingLeft=4;spacingRight=4;overflow=hidden;rotatable=0;points=[[0,0.5],[1,0.5]];portConstraint=eastwest;fontSize=12;" vertex="1" parent="KvIE-I7Vvlbd97NcbpaM-16">
          <mxGeometry y="86" width="160" height="30" as="geometry" />
        </mxCell>
        <mxCell id="KvIE-I7Vvlbd97NcbpaM-20" value="State (string)" style="text;strokeColor=none;fillColor=none;spacingLeft=4;spacingRight=4;overflow=hidden;rotatable=0;points=[[0,0.5],[1,0.5]];portConstraint=eastwest;fontSize=12;" vertex="1" parent="KvIE-I7Vvlbd97NcbpaM-16">
          <mxGeometry y="116" width="160" height="30" as="geometry" />
        </mxCell>
        <mxCell id="KvIE-I7Vvlbd97NcbpaM-22" value="" style="edgeStyle=entityRelationEdgeStyle;fontSize=12;html=1;endArrow=ERoneToMany;startArrow=ERoneToMany;entryX=0;entryY=0.833;entryDx=0;entryDy=0;entryPerimeter=0;exitX=1;exitY=0.5;exitDx=0;exitDy=0;" edge="1" parent="1" source="KvIE-I7Vvlbd97NcbpaM-19" target="KvIE-I7Vvlbd97NcbpaM-7">
          <mxGeometry width="100" height="100" relative="1" as="geometry">
            <mxPoint x="350" y="380" as="sourcePoint" />
            <mxPoint x="450" y="280" as="targetPoint" />
          </mxGeometry>
        </mxCell>
        <mxCell id="KvIE-I7Vvlbd97NcbpaM-23" value="Departs/Arrives at" style="edgeLabel;html=1;align=center;verticalAlign=middle;resizable=0;points=[];" vertex="1" connectable="0" parent="KvIE-I7Vvlbd97NcbpaM-22">
          <mxGeometry x="0.0277" relative="1" as="geometry">
            <mxPoint as="offset" />
          </mxGeometry>
        </mxCell>
        <mxCell id="KvIE-I7Vvlbd97NcbpaM-24" value="" style="edgeStyle=entityRelationEdgeStyle;fontSize=12;html=1;endArrow=ERoneToMany;startArrow=ERone;entryX=0;entryY=-0.144;entryDx=0;entryDy=0;entryPerimeter=0;startFill=0;exitX=1;exitY=0.5;exitDx=0;exitDy=0;" edge="1" parent="1" source="KvIE-I7Vvlbd97NcbpaM-2" target="KvIE-I7Vvlbd97NcbpaM-14">
          <mxGeometry width="100" height="100" relative="1" as="geometry">
            <mxPoint x="260" y="268" as="sourcePoint" />
            <mxPoint x="220" y="60" as="targetPoint" />
          </mxGeometry>
        </mxCell>
        <mxCell id="KvIE-I7Vvlbd97NcbpaM-25" value="Purchases" style="edgeLabel;html=1;align=center;verticalAlign=middle;resizable=0;points=[];" vertex="1" connectable="0" parent="KvIE-I7Vvlbd97NcbpaM-24">
          <mxGeometry x="0.0184" y="1" relative="1" as="geometry">
            <mxPoint as="offset" />
          </mxGeometry>
        </mxCell>
        <mxCell id="KvIE-I7Vvlbd97NcbpaM-26" value="" style="edgeStyle=entityRelationEdgeStyle;fontSize=12;html=1;endArrow=ERone;startArrow=ERoneToMany;entryX=0;entryY=0.5;entryDx=0;entryDy=0;endFill=0;exitX=1;exitY=0.5;exitDx=0;exitDy=0;" edge="1" parent="1" source="KvIE-I7Vvlbd97NcbpaM-14" target="KvIE-I7Vvlbd97NcbpaM-7">
          <mxGeometry width="100" height="100" relative="1" as="geometry">
            <mxPoint x="483" y="100" as="sourcePoint" />
            <mxPoint x="484" y="100" as="targetPoint" />
          </mxGeometry>
        </mxCell>
        <mxCell id="KvIE-I7Vvlbd97NcbpaM-27" value="Issued for" style="edgeLabel;html=1;align=center;verticalAlign=middle;resizable=0;points=[];" vertex="1" connectable="0" parent="KvIE-I7Vvlbd97NcbpaM-26">
          <mxGeometry x="0.1065" relative="1" as="geometry">
            <mxPoint as="offset" />
          </mxGeometry>
        </mxCell>
        <mxCell id="KvIE-I7Vvlbd97NcbpaM-29" value="Airline" style="swimlane;fontStyle=0;childLayout=stackLayout;horizontal=1;startSize=26;horizontalStack=0;resizeParent=1;resizeParentMax=0;resizeLast=0;collapsible=1;marginBottom=0;align=center;fontSize=14;" vertex="1" parent="1">
          <mxGeometry x="565" y="510" width="160" height="56" as="geometry" />
        </mxCell>
        <mxCell id="KvIE-I7Vvlbd97NcbpaM-30" value="Name (string)" style="text;strokeColor=none;fillColor=none;spacingLeft=4;spacingRight=4;overflow=hidden;rotatable=0;points=[[0,0.5],[1,0.5]];portConstraint=eastwest;fontSize=12;" vertex="1" parent="KvIE-I7Vvlbd97NcbpaM-29">
          <mxGeometry y="26" width="160" height="30" as="geometry" />
        </mxCell>
        <mxCell id="KvIE-I7Vvlbd97NcbpaM-33" value="" style="edgeStyle=entityRelationEdgeStyle;fontSize=12;html=1;endArrow=ERoneToMany;startArrow=ERzeroToOne;exitX=1;exitY=0.25;exitDx=0;exitDy=0;" edge="1" parent="1" source="KvIE-I7Vvlbd97NcbpaM-29" target="KvIE-I7Vvlbd97NcbpaM-10">
          <mxGeometry width="100" height="100" relative="1" as="geometry">
            <mxPoint x="725" y="491" as="sourcePoint" />
            <mxPoint x="630.75" y="409.65999999999997" as="targetPoint" />
          </mxGeometry>
        </mxCell>
        <mxCell id="KvIE-I7Vvlbd97NcbpaM-35" value="FlightClass" style="swimlane;fontStyle=0;childLayout=stackLayout;horizontal=1;startSize=26;horizontalStack=0;resizeParent=1;resizeParentMax=0;resizeLast=0;collapsible=1;marginBottom=0;align=center;fontSize=14;" vertex="1" parent="1">
          <mxGeometry x="50" y="50" width="160" height="56" as="geometry" />
        </mxCell>
        <mxCell id="KvIE-I7Vvlbd97NcbpaM-36" value="Name" style="text;strokeColor=none;fillColor=none;spacingLeft=4;spacingRight=4;overflow=hidden;rotatable=0;points=[[0,0.5],[1,0.5]];portConstraint=eastwest;fontSize=12;" vertex="1" parent="KvIE-I7Vvlbd97NcbpaM-35">
          <mxGeometry y="26" width="160" height="30" as="geometry" />
        </mxCell>
        <mxCell id="KvIE-I7Vvlbd97NcbpaM-39" value="" style="edgeStyle=entityRelationEdgeStyle;fontSize=12;html=1;endArrow=ERoneToMany;startArrow=ERzeroToOne;exitX=1;exitY=0.5;exitDx=0;exitDy=0;entryX=0;entryY=0.5;entryDx=0;entryDy=0;" edge="1" parent="1" source="KvIE-I7Vvlbd97NcbpaM-36" target="KvIE-I7Vvlbd97NcbpaM-13">
          <mxGeometry width="100" height="100" relative="1" as="geometry">
            <mxPoint x="210" y="121" as="sourcePoint" />
            <mxPoint x="430" y="180" as="targetPoint" />
          </mxGeometry>
        </mxCell>
      </root>
    </mxGraphModel>
  </diagram>
</mxfile>
